<svg width="290" height="290" viewBox="0 0 290 290" fill="none" xmlns="http://www.w3.org/2000/svg">
<g clip-path="url(#clip0_101_5)">
<path d="M198.007 208.31L199.488 203.175C201.246 197.071 200.596 191.437 197.634 187.285C194.865 183.464 190.353 181.222 184.83 180.959L80.2826 179.63C79.9545 179.625 79.6325 179.541 79.3439 179.385C79.0553 179.229 78.8088 179.006 78.6252 178.734C78.4417 178.462 78.3266 178.15 78.2898 177.824C78.253 177.498 78.2956 177.168 78.4139 176.862C78.5916 176.349 78.9159 175.9 79.3465 175.57C79.7771 175.241 80.2952 175.045 80.8362 175.007L186.394 173.623C198.852 173.055 212.472 162.895 217.22 150.493L223.227 134.769C223.398 134.327 223.482 133.858 223.476 133.384C223.469 133.133 223.441 132.883 223.393 132.637C220.116 118.011 212.148 104.857 200.704 95.1776C189.261 85.4981 174.967 79.8235 160 79.0179C145.033 78.2123 130.213 82.3197 117.796 90.7148C105.379 99.11 96.0462 111.333 91.2176 125.522C86.0918 121.712 79.9125 119.582 73.5278 119.424C67.1431 119.266 60.8659 121.088 55.558 124.64C50.2501 128.192 46.1715 133.299 43.882 139.261C41.5926 145.224 41.2046 151.748 42.7712 157.94C36.5513 158.101 30.4365 159.581 24.8319 162.283C19.2273 164.985 14.2608 168.848 10.2613 173.614C6.26191 178.38 3.32084 183.942 1.63295 189.931C-0.0549429 195.919 -0.451136 202.198 0.470615 208.352C0.537302 208.837 0.777061 209.283 1.14581 209.606C1.51455 209.929 1.9875 210.108 2.47768 210.11H195.557C196.105 210.115 196.64 209.943 197.082 209.618C197.524 209.294 197.849 208.835 198.007 208.31V208.31Z" fill="white"/>
<path d="M232.847 135.959C231.924 135.959 230.955 135.987 229.94 136.042C229.788 136.046 229.638 136.079 229.497 136.139C229.245 136.223 229.016 136.368 228.833 136.561C228.649 136.754 228.516 136.989 228.445 137.246L224.293 151.448C222.521 157.552 223.172 163.186 226.148 167.338C227.651 169.303 229.587 170.896 231.805 171.993C234.023 173.09 236.463 173.662 238.938 173.664L261.237 175.048C261.549 175.058 261.854 175.141 262.128 175.29C262.402 175.439 262.637 175.65 262.815 175.906C263.003 176.181 263.123 176.496 263.163 176.826C263.204 177.156 263.165 177.491 263.05 177.803C262.872 178.315 262.548 178.764 262.117 179.094C261.687 179.424 261.169 179.62 260.628 179.658L237.47 181.042C224.888 181.623 211.337 191.769 206.589 204.158L204.914 208.532C204.844 208.715 204.819 208.912 204.839 209.107C204.86 209.302 204.926 209.489 205.032 209.654C205.139 209.818 205.283 209.955 205.452 210.054C205.622 210.152 205.812 210.209 206.008 210.22H285.778C286.265 210.232 286.74 210.078 287.128 209.784C287.515 209.49 287.791 209.072 287.91 208.601C290.288 200.103 290.668 191.17 289.021 182.5C287.374 173.831 283.744 165.66 278.415 158.626C273.086 151.592 266.202 145.886 258.302 141.954C250.402 138.021 241.699 135.97 232.875 135.959H232.847Z" fill="white"/>
</g>
<defs>
<clipPath id="clip0_101_5">
<rect width="290" height="131.137" fill="white" transform="translate(0 79)"/>
</clipPath>
</defs>
</svg>
